<?xml version="1.0" standalone="no"?>
<!DOCTYPE svg PUBLIC "-//W3C//DTD SVG 20010904//EN"
 "http://www.w3.org/TR/2001/REC-SVG-20010904/DTD/svg10.dtd">
<svg version="1.0" xmlns="http://www.w3.org/2000/svg"
 width="1026.000000pt" height="1026.000000pt" viewBox="0 0 1026.000000 1026.000000"
 preserveAspectRatio="xMidYMid meet">
<metadata>
Created by potrace 1.11, written by Peter Selinger 2001-2013
</metadata>
<g transform="translate(0.000000,1026.000000) scale(0.100000,-0.100000)"
fill="#000000" stroke="none">
<path d="M6635 10249 c-33 -3 -89 -9 -125 -13 -82 -9 -84 -9 -270 -41 -245
-41 -556 -113 -850 -197 -58 -16 -136 -38 -175 -49 -38 -11 -117 -36 -175 -55
-58 -20 -112 -37 -120 -39 -77 -20 -575 -196 -819 -289 -52 -20 -123 -58 -160
-84 -229 -165 -609 -405 -886 -559 -46 -26 -70 -45 -69 -56 1 -9 2 -26 3 -38
1 -23 20 -21 77 8 38 19 84 10 91 -17 7 -24 5 -25 54 1 23 11 43 18 46 15 5
-5 -10 -15 -114 -75 -40 -23 -73 -47 -73 -54 0 -26 13 -56 21 -51 5 3 9 3 9
-1 0 -6 -280 -215 -447 -334 -57 -40 -103 -75 -103 -79 0 -3 7 -14 17 -24 23
-26 9 -34 -38 -21 -32 8 -47 8 -68 -3 -14 -7 -38 -16 -53 -19 -38 -7 -36 -33
8 -79 19 -21 33 -40 30 -43 -3 -3 -28 0 -56 7 -41 10 -61 10 -98 0 -70 -19
-159 -71 -229 -134 -66 -60 -163 -176 -163 -195 0 -7 7 -23 16 -36 l16 -25 47
39 c25 22 64 55 85 74 51 45 96 71 97 58 8 -62 -3 -81 -59 -108 -18 -9 -31
-21 -28 -28 2 -7 -15 -36 -40 -66 -48 -60 -52 -74 -26 -106 l17 -22 57 49 c37
33 59 46 64 39 4 -7 25 8 55 42 39 43 49 50 50 34 5 -77 5 -78 -26 -89 -16 -6
-38 -16 -49 -22 -18 -11 -18 -12 0 -40 10 -16 29 -43 42 -61 l24 -32 77 77
c127 125 241 221 369 308 l75 51 50 -16 c28 -9 63 -28 78 -43 34 -35 76 -31
133 11 177 131 505 340 699 446 153 84 440 221 537 256 l25 9 -26 -22 c-23
-20 -25 -27 -17 -56 5 -18 17 -46 27 -63 10 -17 17 -40 14 -52 -14 -64 -82
-259 -160 -457 -44 -114 -222 -545 -258 -625 -7 -16 -25 -59 -40 -95 -15 -36
-33 -78 -40 -95 -7 -16 -41 -95 -75 -175 -34 -80 -72 -167 -85 -195 -12 -27
-39 -90 -60 -140 -21 -49 -60 -142 -88 -205 -27 -63 -75 -176 -107 -250 -102
-239 -359 -824 -411 -938 -16 -35 -29 -65 -29 -67 0 -2 -13 -32 -29 -67 -16
-35 -92 -202 -169 -373 -153 -338 -161 -356 -315 -685 -372 -798 -779 -1611
-1052 -2105 -40 -71 -88 -159 -107 -195 -38 -69 -132 -235 -148 -260 -5 -8
-27 -46 -49 -85 -21 -38 -60 -104 -85 -145 -25 -41 -46 -80 -46 -87 0 -8 9
-31 20 -53 l20 -38 49 13 50 13 -27 -48 -27 -48 22 -45 22 -45 58 14 c109 28
188 59 277 107 36 20 46 15 46 -25 0 -29 1 -30 38 -26 20 3 45 8 56 13 16 7
17 5 11 -16 -14 -45 -83 -176 -119 -226 -20 -28 -56 -93 -80 -144 -51 -110
-126 -320 -126 -353 0 -20 4 -22 33 -19 24 3 46 20 89 66 l57 62 -40 -105
c-22 -58 -42 -123 -45 -146 l-6 -40 36 4 c30 3 46 16 98 77 211 243 377 476
511 716 36 65 68 125 71 136 4 13 42 29 148 61 208 62 596 188 723 234 240 87
382 140 425 158 25 11 110 47 190 81 80 34 214 95 298 136 85 41 164 76 175
78 12 2 49 6 82 10 239 24 509 100 688 192 112 58 220 136 224 163 4 25 6 25
-100 -6 -48 -14 -95 -23 -104 -20 -32 13 9 32 92 45 87 14 304 69 373 95 88
33 161 76 277 165 554 422 903 676 1203 877 207 139 201 135 354 253 187 145
327 269 508 451 96 96 184 187 195 200 11 14 40 50 65 80 132 158 222 302 302
483 122 277 176 485 176 689 1 93 0 98 -35 155 -20 32 -47 80 -60 108 -35 70
-87 144 -194 276 -90 111 -271 324 -293 344 -6 6 -26 27 -44 48 -32 38 -32 38
-15 68 35 60 154 154 335 266 68 41 125 78 128 82 3 4 43 41 90 82 47 40 90
78 96 84 9 9 91 80 158 138 12 10 37 33 56 50 19 18 69 61 110 97 41 36 77 67
80 70 3 3 39 35 80 70 41 36 80 70 86 75 6 6 29 27 52 47 52 47 110 134 163
245 40 86 104 264 120 333 4 19 15 67 23 105 15 65 26 128 41 230 4 22 8 51
10 64 51 307 3 607 -127 798 -15 23 -32 53 -38 68 -32 84 -192 274 -315 375
-82 67 -215 150 -375 232 -58 30 -143 75 -190 99 -153 80 -309 132 -536 178
-82 17 -171 33 -199 37 -27 3 -58 8 -69 10 -10 2 -44 6 -75 9 -31 4 -66 8 -78
10 -20 3 -75 8 -248 20 -33 2 -125 7 -205 11 -80 3 -147 7 -150 8 -3 1 -32 -1
-65 -5z m1655 -634 c147 -21 303 -67 387 -115 50 -29 52 -31 42 -59 -9 -25
-14 -29 -32 -22 -95 36 -464 195 -472 203 -7 7 -4 8 10 5 11 -3 40 -9 65 -12z
m-1891 -528 c-1 -7 -1 -27 0 -45 1 -30 3 -32 29 -27 15 3 45 8 67 11 71 9 99
13 160 23 80 13 119 18 190 26 33 4 62 9 65 10 12 7 210 18 320 18 230 1 381
-30 497 -100 71 -42 72 -43 76 -73 2 -14 9 -26 15 -26 7 -1 16 -2 21 -3 12 -1
51 -99 51 -127 0 -12 5 -24 12 -26 16 -6 69 3 64 11 -2 3 -7 40 -10 81 l-7 76
36 2 c66 5 201 -96 214 -159 9 -43 -4 -121 -30 -178 -32 -68 -109 -181 -125
-181 -29 0 -61 47 -55 83 0 4 -17 7 -39 7 -31 0 -40 -4 -41 -17 -1 -10 -3 -36
-5 -58 -2 -22 -5 -61 -7 -86 -2 -29 -13 -59 -29 -80 -13 -19 -58 -81 -98 -139
-41 -58 -79 -110 -85 -117 -5 -6 -21 -26 -35 -44 -48 -64 -158 -185 -211 -233
-57 -51 -144 -106 -169 -106 -8 0 -44 -39 -80 -86 -36 -47 -85 -104 -110 -126
-25 -23 -74 -68 -110 -101 -36 -33 -123 -104 -195 -157 -137 -102 -442 -310
-455 -310 -4 0 -13 -6 -19 -14 -7 -8 -43 -22 -79 -30 -143 -32 -723 -253
-1027 -391 -147 -67 -431 -185 -444 -185 -10 0 -24 6 -33 13 -14 11 -13 20 11
93 15 44 49 121 76 170 73 136 73 136 80 184 3 25 15 81 26 125 54 217 104
343 158 401 17 18 60 99 96 180 333 745 654 1473 661 1499 22 94 138 155 385
204 154 31 191 32 188 8z m2363 -166 c17 -14 32 -45 47 -95 13 -42 21 -81 19
-86 -5 -15 -51 30 -75 75 -12 23 -26 60 -31 83 -11 48 -1 54 40 23z m-6364
-929 c-5 -23 -127 -63 -129 -43 -5 45 -4 46 41 51 69 9 91 7 88 -8z m136 -87
c4 -10 -1 -15 -14 -15 -20 0 -26 11 -13 23 10 11 20 8 27 -8z m-46 -72 c-3
-14 -52 -37 -105 -50 -31 -7 -29 2 8 35 35 31 102 42 97 15z m3957 -2367 c161
-10 307 -48 443 -117 94 -47 112 -61 112 -86 0 -49 -124 -343 -202 -479 -91
-159 -183 -263 -288 -324 -36 -21 -76 -48 -90 -60 -14 -12 -38 -32 -55 -45
-73 -58 -319 -253 -535 -424 -201 -160 -317 -242 -635 -446 -216 -140 -257
-165 -262 -165 -3 0 -20 -10 -37 -23 -53 -39 -267 -163 -356 -205 -47 -22
-121 -60 -165 -85 -90 -49 -210 -114 -395 -212 -192 -101 -790 -395 -805 -395
-2 0 -28 -11 -57 -24 -29 -13 -75 -33 -103 -46 -65 -28 -277 -101 -282 -97 -3
4 19 51 167 362 113 238 594 1207 994 2003 80 160 152 292 159 293 18 1 58 7
195 30 328 54 839 209 1402 424 295 113 261 105 520 121 52 4 96 7 97 8 2 2
53 0 178 -8z m1625 -56 c0 -5 -7 -10 -15 -10 -8 0 -15 5 -15 10 0 6 7 10 15
10 8 0 15 -4 15 -10z m-3083 -167 c3 -9 -9 -13 -39 -14 -23 0 -55 -2 -70 -4
-25 -3 -38 12 -23 26 11 11 128 4 132 -8z m-769 -2970 c6 -9 12 -20 12 -25 0
-4 -6 -8 -12 -9 -61 -3 -152 -43 -441 -192 -42 -22 -47 -20 -51 18 -4 29 0 31
59 40 121 17 246 78 348 169 31 27 64 27 85 -1z m-598 -304 c-25 -11 -68 -29
-96 -40 -47 -18 -106 -62 -115 -86 -8 -20 -313 -130 -364 -132 l-49 -2 24 19
c14 10 59 34 100 54 235 111 469 207 510 207 l35 1 -45 -21z m-1043 -468 c17
-9 -266 -151 -293 -146 -10 2 -25 4 -32 4 -18 1 21 71 62 110 54 52 75 58 167
49 46 -5 89 -13 96 -17z m13 -212 c-102 -50 -194 -92 -205 -93 -11 -2 -38 3
-60 10 -34 10 -37 13 -19 19 11 3 117 39 235 79 118 40 219 74 224 74 6 1 -73
-40 -175 -89z m-869 -42 l-34 -32 29 37 c15 20 30 35 33 32 3 -2 -10 -19 -28
-37z m-110 -18 c29 -29 20 -32 -35 -13 -34 12 -44 19 -35 25 23 14 48 10 70
-12z"/>
</g>
</svg>
